<?xml version="1.0" standalone="no"?>
<!DOCTYPE svg PUBLIC "-//W3C//DTD SVG 1.1//EN" "http://www.w3.org/Graphics/SVG/1.1/DTD/svg11.dtd" >
<svg xmlns="http://www.w3.org/2000/svg">
<metadata>Generated by IcoMoon</metadata>
<defs>
<font id="icomoon" horiz-adv-x="1024">
<font-face units-per-em="1024" ascent="960" descent="-64" />
<missing-glyph horiz-adv-x="1024" />
<glyph unicode="&#x20;" horiz-adv-x="512" d="" />
<glyph unicode="&#x2b;" glyph-name="zoom-in" d="M992.262 88.604l-242.552 206.294c-25.074 22.566-51.89 32.926-73.552 31.926 57.256 67.068 91.842 154.078 91.842 249.176 0 212.078-171.922 384-384 384s-384-171.922-384-384 171.922-384 384-384c95.098 0 182.108 34.586 249.176 91.844-1-21.662 9.36-48.478 31.926-73.552l206.294-242.552c35.322-39.246 93.022-42.554 128.22-7.356s31.892 92.898-7.354 128.22zM384 320c-141.384 0-256 114.616-256 256s114.616 256 256 256 256-114.616 256-256-114.614-256-256-256zM448 768h-128v-128h-128v-128h128v-128h128v128h128v128h-128z" />
<glyph unicode="&#x2d;" glyph-name="zoom-out" d="M992.262 88.604l-242.552 206.294c-25.074 22.566-51.89 32.926-73.552 31.926 57.256 67.068 91.842 154.078 91.842 249.176 0 212.078-171.922 384-384 384s-384-171.922-384-384 171.922-384 384-384c95.098 0 182.108 34.586 249.176 91.844-1-21.662 9.36-48.478 31.926-73.552l206.294-242.552c35.322-39.246 93.022-42.554 128.22-7.356s31.892 92.898-7.354 128.22zM384 320c-141.384 0-256 114.616-256 256s114.616 256 256 256 256-114.616 256-256-114.614-256-256-256zM192 640h384v-128h-384z" />
<glyph unicode="&#x3e;" glyph-name="angle-right" d="M438.426 741.582c21.402-20.89 230.502-240.436 230.502-240.436 11.47-11.162 17.152-25.754 17.152-40.346s-5.682-29.184-17.152-40.346c0 0-209.1-219.546-230.502-240.384-21.402-20.89-59.854-22.322-82.738 0-22.834 22.272-24.628 53.35 0 80.64l191.898 200.090-191.846 200.090c-24.628 27.34-22.834 58.418 0 80.69s61.338 20.89 82.688 0z" />
<glyph unicode="&#x43;" glyph-name="checkmark" d="M512 960c-282.752 0-512-229.248-512-512s229.248-512 512-512 512 229.248 512 512-229.248 512-512 512zM432.64 211.744l-235.584 235.616 90.496 90.496 145.056-145.12 307.744 307.744 90.496-90.496-398.208-398.24z" />
<glyph unicode="&#x45;" glyph-name="edit" d="M848 624l-432-432h-160v160l432 432zM902 678l-160 160 56.058 56.058c18.668 18.668 49.214 18.668 67.882 0l92.118-92.118c18.668-18.668 18.668-49.214 0-67.882l-56.058-56.058zM768 396.418v-332.418h-640v640h352l128 128h-512c-52.8 0-96-43.2-96-96v-704c0-52.8 43.2-96 96-96h704c52.8 0 96 43.2 96 96v479.362l-128-114.944z" />
<glyph unicode="&#x56;" glyph-name="angle-down" d="M792.73 534.374c-20.838-21.402-240.384-230.554-240.384-230.554-11.162-11.418-25.754-17.1-40.346-17.1-14.644 0-29.236 5.682-40.346 17.1 0 0-219.546 209.152-240.436 230.554-20.838 21.402-22.272 59.852 0 82.74 22.324 22.834 53.402 24.626 80.69 0l200.090-191.898 200.038 191.846c27.342 24.628 58.47 22.836 80.692 0 22.322-22.834 20.942-61.338 0-82.688z" />
<glyph unicode="&#x60;" glyph-name="unchecked" d="M0 960v-1024h1024v1024h-1024zM960 0h-896v896h896v-896z" />
<glyph unicode="&#x61;" glyph-name="apple" d="M791.498 415.908c-1.294 129.682 105.758 191.876 110.542 194.966-60.152 88.020-153.85 100.078-187.242 101.472-79.742 8.074-155.596-46.948-196.066-46.948-40.368 0-102.818 45.754-168.952 44.552-86.916-1.292-167.058-50.538-211.812-128.38-90.304-156.698-23.126-388.84 64.89-515.926 43.008-62.204 94.292-132.076 161.626-129.58 64.842 2.588 89.362 41.958 167.756 41.958s100.428-41.958 169.050-40.67c69.774 1.296 113.982 63.398 156.692 125.796 49.39 72.168 69.726 142.038 70.924 145.626-1.548 0.706-136.060 52.236-137.408 207.134zM662.562 796.478c35.738 43.358 59.86 103.512 53.28 163.522-51.478-2.096-113.878-34.29-150.81-77.55-33.142-38.376-62.148-99.626-54.374-158.436 57.466-4.484 116.128 29.204 151.904 72.464z" />
<glyph unicode="&#x65;" glyph-name="swirl" horiz-adv-x="1056" d="M268.628 62.278c-135.462 130.87-163.014 298.476-133.166 433.938 16.072 68.88 48.216 142.35 105.614 206.638 135.462 146.942 314.548 160.716 450.010 107.91 71.174-27.552 144.646-80.36 192.86-163.014 82.654-146.942 57.4-323.73-66.582-433.938-73.472-64.288-151.534-84.952-231.892-75.766-89.544 9.184-215.822 75.768-245.668 202.044-25.256 105.614 34.44 270.924 183.678 289.292 55.102 6.888 135.462-13.776 179.086-82.656 36.736-59.694 25.256-144.646-29.848-183.678-41.326-29.848-87.246-25.256-123.982 18.368 2.296 4.592 18.368-4.592 29.848-6.888 11.48 0 25.256 2.296 36.736 9.184 66.582 36.736 48.216 112.502-6.888 149.238-43.624 29.848-107.91 20.664-151.534-29.848s-48.216-123.982-16.072-181.38c59.694-105.614 202.044-128.574 303.068-57.4 105.614 75.766 123.982 213.524 75.768 314.548-43.624 96.43-126.278 140.054-202.044 160.716-107.91 27.552-247.964-4.592-337.508-128.574-87.248-119.39-107.91-303.068 22.96-454.6 43.622-50.51 84.952-78.062 135.462-101.022 89.544-41.326 188.27-55.102 298.476-22.96s218.116 126.278 266.332 225.004c45.918 91.838 61.992 195.158 43.622 293.884-18.368 110.206-82.654 222.708-183.678 300.77-82.654 61.99-185.974 98.726-284.7 107.91-94.134 6.888-220.414-20.664-316.844-82.654l-52.808-39.032c-185.974-172.196-245.668-381.13-188.27-590.062 32.144-114.798 107.91-234.188 204.342-312.25 11.48-6.888 89.544 45.918 43.622 126.278z" />
<glyph unicode="&#x68;" glyph-name="recent" d="M576 896c247.424 0 448-200.576 448-448s-200.576-448-448-448v96c94.024 0 182.418 36.614 248.902 103.098s103.098 154.878 103.098 248.902c0 94.022-36.614 182.418-103.098 248.902s-154.878 103.098-248.902 103.098c-94.022 0-182.418-36.614-248.902-103.098-51.14-51.138-84.582-115.246-97.306-184.902h186.208l-224-256-224 256h164.57c31.060 217.102 217.738 384 443.43 384zM768 512v-128h-256v320h128v-192z" />
<glyph unicode="&#x6d;" glyph-name="more" horiz-adv-x="952" d="M0 237.714v402.286q0 68 48.286 116.286t116.286 48.286h182.856q7.428 0 12.856-5.428t5.428-12.856q0-2.286 0.572-11.428t0.286-15.144-1.714-13.43-5.714-11.142-11.714-3.714h-182.856q-37.714 0-64.57-26.856t-26.856-64.572v-402.286q0-37.714 26.856-64.572t64.57-26.856h178.286t6.572-0.572 6.572-1.714 4.572-3.144 4-5.144 1.142-7.714q0-2.286 0.572-11.428t0.286-15.144-1.714-13.428-5.714-11.144-11.714-3.714h-182.856q-68 0-116.286 48.286t-48.286 116.286zM219.43 329.144v219.428q0 14.856 10.856 25.714t25.714 10.858h256v164.572q0 14.856 10.856 25.714t25.714 10.856 25.714-10.856l310.856-310.856q10.856-10.856 10.856-25.714t-10.856-25.714l-310.856-310.856q-10.856-10.856-25.714-10.856t-25.714 10.856-10.856 25.714v164.572h-256q-14.856 0-25.714 10.856t-10.856 25.714z" />
<glyph unicode="&#x73;" glyph-name="search" d="M33.836 35.498l60.33-60.332 187.094 187.092-58.752 61.908-188.672-188.672zM602.668 896c-209.068 0-378.666-169.558-378.666-378.668 0-81.876 26.324-157.44 70.486-219.436l71.252-75.092c64.896-52.352 147.072-84.182 236.928-84.182 209.152 0 378.668 169.558 378.668 378.668s-169.514 378.708-378.666 378.708zM602.668 224c-161.75 0-293.334 131.584-293.334 293.334s131.584 293.334 293.334 293.334 293.332-131.584 293.332-293.334-131.584-293.334-293.334-293.334z" />
<glyph unicode="&#x77;" glyph-name="external-link" d="M0 237.714v475.428q0 68 48.286 116.286t116.286 48.286h402.286q8 0 13.144-5.144t5.144-13.144v-36.57q0-8-5.144-13.144t-13.144-5.144h-402.286q-37.714 0-64.57-26.856t-26.856-64.572v-475.428q0-37.714 26.856-64.572t64.57-26.856h475.43q37.714 0 64.572 26.856t26.856 64.572v182.856q0 8 5.144 13.144t13.144 5.142h36.572q8 0 13.144-5.142t5.144-13.144v-182.856q0-68-48.286-116.286t-116.286-48.286h-475.428q-68 0-116.286 48.286t-48.286 116.286zM391.428 402.286q0 7.428 5.714 13.144l372.57 372.572-100.572 100.57q-10.856 10.858-10.856 25.714t10.856 25.714 25.714 10.856h292.572q14.856 0 25.714-10.856t10.856-25.714v-292.572q0-14.856-10.856-25.714t-25.714-10.856-25.714 10.856l-100.572 100.572-372.572-372.572q-5.714-5.714-13.144-5.714t-13.144 5.714l-65.144 65.144q-5.714 5.714-5.714 13.144z" />
<glyph unicode="&#x78;" glyph-name="close" d="M512 896c-247.422 0-448-200.576-448-448s200.578-448 448-448c247.424 0 448 200.576 448 448s-200.576 448-448 448zM781.256 269.256l-90.512-90.512-178.744 178.746-178.746-178.744-90.51 90.51 178.746 178.744-178.744 178.746 90.508 90.508 178.746-178.744 178.744 178.746 90.512-90.51-178.746-178.746 178.746-178.744z" />
<glyph unicode="&#x7e;" glyph-name="checked" d="M0 960v-1024h1024v1024h-1024zM960 0h-896v896h896v-896zM768 736l-320-320-192 192-128-128 320-320 448 448-128 128z" />
<glyph unicode="&#xe31d;" glyph-name="diversity" d="M448 704c0 35.346 28.654 64 64 64s64-28.654 64-64c0-35.346-28.654-64-64-64s-64 28.654-64 64zM512 960c-282.77 0-512-229.23-512-512s229.23-512 512-512 512 229.23 512 512-229.23 512-512 512zM512 128c-35.348 0-64 28.652-64 64s28.652 64 64 64c35.346 0 64-28.652 64-64s-28.654-64-64-64zM512 448c-114.876 0-208-93.124-208-208s93.124-208 208-208c-229.75 0-416 186.25-416 416s186.25 416 416 416c114.876 0 208-93.124 208-208s-93.124-208-208-208z" />
<glyph unicode="&#xe900;" glyph-name="foods" d="M725.332 747.606c-78.422 0-122.708-16.896-157.014-39.85 21.888 50.004 75.434 125.184 199.68 125.184 23.552 0 42.668 19.116 42.668 42.668s-19.116 42.666-42.668 42.666c-124.63 0-197.504-58.24-236.672-107.178-2.73-3.328-5.076-6.912-7.68-10.41-23.168 80.896-62.932 158.336-130.816 158.336-26.796 0.044-57.9-12.076-94.166-40.748-84.18-66.644-71.296-124.756-21.676-171.562-123.008-9.516-276.992-100.394-276.992-340.054 0-195.5 211.67-469.716 384-469.716 84.266 0 101.164 20.736 128 42.668 26.838-21.932 43.734-42.668 128-42.668 172.332 0 384 273.834 384 469.332 0 253.996-173.014 341.334-298.666 341.334zM351.658 851.37c27.348 21.676 40.236 22.316 41.174 22.316 18.176-7.212 41.6-59.948 57.9-130.348-65.152 26.836-116.95 57.686-127.146 78.764 2.516 4.778 10.284 15.188 28.074 29.27zM640 22.272c-46.080 0-51.626 4.65-66.518 17.152l-7.51 6.23c-15.658 12.884-34.816 19.284-54.016 19.284s-38.314-6.4-54.016-19.284l-7.51-6.23c-14.806-12.458-20.352-17.152-66.432-17.152-120.022 0-298.666 229.932-298.666 384.384 0 248.448 191.488 255.616 213.334 255.616 82.73 0 105.984-20.096 144.512-53.376 4.564-3.926 9.174-7.892 13.782-11.776 15.916-13.44 35.456-20.182 55.040-20.182s39.126 6.7 55.040 20.182c4.608 3.924 9.216 7.892 13.78 11.776 38.486 33.28 61.74 53.376 144.512 53.376 21.846 0 213.332-7.168 213.332-256 0-154.324-178.644-384-298.668-384z" />
<glyph unicode="&#xe901;" glyph-name="activity" d="M512 960c-282.752 0-512-229.206-512-512 0-282.752 229.248-512 512-512 282.796 0 512 229.248 512 512 0 282.796-229.206 512-512 512zM936.49 490.666h-209.024c9.558 107.82 52.564 203.648 83.968 260.822 68.948-68.012 114.944-159.19 125.056-260.822zM554.668 490.666v381.824c69.248-6.912 133.548-30.678 189.1-66.73-36.608-63.616-91.99-180.052-102.058-315.094h-87.040zM469.334 490.666h-86.998c-10.154 135.040-65.536 251.478-102.1 315.094 55.596 36.052 119.85 59.818 189.098 66.73v-381.824zM469.334 405.332v-381.824c-69.248 6.912-133.504 30.634-189.098 66.73 36.564 63.658 91.948 180.096 102.1 315.094h86.998zM641.706 405.332c10.068-134.996 65.452-251.436 102.058-315.092-55.552-36.14-119.85-59.818-189.1-66.73v381.824h87.040zM212.564 751.488c31.402-57.174 74.412-153.004 84.012-260.822h-209.068c10.156 101.632 56.15 192.81 125.056 260.822zM87.51 405.332h209.068c-9.644-107.818-52.608-203.562-84.010-260.822-68.908 67.968-114.9 159.146-125.056 260.822zM811.434 144.512c-31.36 57.26-74.412 153.002-83.968 260.822h209.024c-10.112-101.674-56.106-192.852-125.056-260.822z" />
<glyph unicode="&#xe902;" glyph-name="objects" d="M512 874.668c164.692 0 298.666-134.016 298.666-298.668s-133.972-298.666-298.666-298.666-298.666 134.016-298.666 298.666 133.974 298.668 298.666 298.668zM512 960c-212.096 0-384-171.904-384-384s171.904-384 384-384 384 171.904 384 384-171.904 384-384 384zM640 226.518v-132.652c-23.424-26.496-72.278-72.534-128-72.534-52.652 0-101.802 42.538-128 72.15v132.992c-34.218 19.884-63.488 47.232-85.332 80.128v-242.602c0 0 86.826-128 213.332-128s213.332 128 213.332 128v242.644c-21.846-32.896-51.116-60.288-85.332-80.128zM682.668 203.264c-48.428-33.876-107.222-53.932-170.668-53.932s-122.24 20.052-170.668 53.932v-98.816c51.456-25.644 109.27-40.448 170.668-40.448s119.212 14.804 170.668 40.404v98.86zM629.12 428.842h-0.172c-36.352 1.024-50.688 36.608-67.284 77.824-17.962 45.268-29.996 66.604-50.432 66.816h-0.384c-20.524 0-33.408-21.204-52.692-65.58-18.604-41.9-34.176-77.268-69.802-76.416l-11.776 1.836c-24.108 7.296-36.394 29.484-54.784 76.544-5.334 13.356-8.618 26.964-11.52 38.954-2.176 9.088-5.418 22.614-8.32 27.052-0.428-0.044-1.62 0.128-3.712 0.128-23.552 0.256-42.496 19.5-42.24 43.092 0.256 23.424 19.286 42.24 42.668 42.24h0.428c70.912-0.726 85.974-58.582 93.782-91.052 20.736 41.856 55.638 87.808 119.338 88.534 65.322-0.768 97.28-49.196 116.524-91.35 0 0.084 0.044 0.256 0.086 0.342 8.788 32.768 25.13 93.524 95.616 93.524h1.366c23.552-0.298 42.452-19.584 42.198-43.178-0.256-23.38-19.328-42.154-42.668-42.154h-0.47c-6.356-3.242-10.924-20.224-13.61-30.25-3.37-12.586-7.212-26.836-13.27-40.576-18.304-41.514-33.706-76.332-68.864-76.332z" />
<glyph unicode="&#xe903;" glyph-name="travel" d="M277.334 448c-58.796 0-106.668-47.828-106.668-106.668s47.872-106.668 106.668-106.668 106.666 47.828 106.666 106.668-47.872 106.668-106.668 106.668zM277.334 320c-11.734 0-21.334 9.6-21.334 21.332s9.6 21.332 21.332 21.332 21.332-9.6 21.332-21.332-9.6-21.332-21.332-21.332zM746.668 448c-58.794 0-106.668-47.828-106.668-106.668s47.872-106.668 106.668-106.668 106.668 47.828 106.668 106.668-47.872 106.668-106.668 106.668zM746.668 320c-11.732 0-21.332 9.6-21.332 21.332s9.6 21.332 21.332 21.332 21.332-9.6 21.332-21.332-9.6-21.332-21.332-21.332zM959.232 554.924l-44.332 14.762-1.836 6.316h25.6c23.552 0 42.668 18.73 42.668 42.326 0 0.256-0.128 0.34-0.128 0.34h0.128c0 42.668-37.932 85.334-84.65 85.334h-27.392l-31.188 73.26c-16.256 54.23-66.218 97.408-122.836 97.408h-406.528c-56.618 0-106.582-43.178-122.836-97.408l-31.188-73.26h-27.392c-46.72 0-84.65-42.668-84.65-85.332h0.128c0 0-0.128-0.084-0.128-0.342 0-23.596 19.114-42.326 42.668-42.326h25.6l-1.834-6.314-44.332-14.764c-37.888-12.628-61.952-49.792-57.984-89.472l32.042-320.34c2.176-21.846 20.522-38.442 42.412-38.442h46.764v-42.668c0-47.062 38.228-85.332 85.332-85.332h85.332c47.104 0 85.332 38.272 85.332 85.332v42.668h256v-42.668c0-47.062 38.23-85.332 85.332-85.332h85.332c47.104 0 85.332 38.272 85.332 85.332v42.668h46.764c21.932 0 40.236 16.596 42.412 38.442l32.044 320.342c3.968 39.68-20.096 76.842-57.984 89.472zM267.648 752.768c5.504 18.218 21.974 36.564 41.088 36.564h406.484c19.116 0 35.584-18.346 41.088-36.564l67.712-176.768h-624l67.628 176.768zM298.666 64h-85.332v42.668h85.332v-42.668zM810.668 64h-85.332v42.668h85.332v-42.668zM904.064 192h-784.128l-28.246 281.9 36.308 16.768h768l36.352-16.768-28.288-281.9z" />
<glyph unicode="&#xe904;" glyph-name="nature" d="M362.666 618.666c-35.328 0-64-28.672-64-64s28.672-64 64-64 64 28.63 64 64-28.63 64-64 64zM661.332 618.666c-35.328 0-64-28.672-64-64s28.672-64 64-64 64 28.63 64 64-28.672 64-64 64zM807.808 960h-1.152c-41.386 0-91.222-33.578-128.768-63.872-54.356 15.956-111.444 21.76-165.846 21.76-54.826 0-111.616-5.676-165.29-22.060-37.632 30.464-87.808 64.172-129.45 64.172h-1.152c-73.132 0-213.164-113.92-216.064-299.776-1.664-105.77 11.776-180.82 44.372-213.888 10.836-11.008 37.632-28.884 55.254-37.632 8.15-135.552 39.338-223.488 108.204-272.214 38.272-27.178 93.312-40.49 136.532-47.020-1.408-8.404-3.116-16.726-3.116-25.472 0-75.648 100.266-128 170.668-128 70.314 0 170.668 52.352 170.668 128 0 8.576-1.62 16.768-3.072 25.004 109.782 16.428 231.894 80.086 252.8 323.712 16.896 9.388 37.846 24.236 47.104 33.62 32.554 33.024 46.038 108.116 44.374 213.888-2.9 185.856-142.976 299.776-216.064 299.776zM137.514 570.24c-10.112-11.99-35.712-49.28-37.716-52.822-6.4 17.494-15.702 57.558-14.38 140.416 2.176 139.988 105.728 212.138 131.884 214.656 10.924-0.64 31.188-11.52 53.972-27.562-47.36-49.964-97.068-124.374-100.352-218.668-5.676-23.296-16.98-36.608-33.408-56.020zM512 21.332c-38.442 0-83.37 29.568-85.332 42.668 0 27.904 20.266 52.736 42.668 68.352v-25.684c0-23.596 19.072-42.668 42.668-42.668s42.668 19.072 42.668 42.668v25.684c22.356-15.572 42.668-40.404 42.668-68.352-1.962-13.1-46.89-42.668-85.332-42.668zM640 169.812v-0.852c-15.616 17.836-34.048 32.512-53.846 43.52 46.592 22.016 95.53 56.918 95.53 94.592 0 78.592-75.99 93.654-169.684 93.654s-169.728-15.104-169.728-93.654c0-37.674 48.98-72.576 95.488-94.592-19.668-10.966-38.058-25.644-53.76-43.476v1.068c-42.668 3.244-93.098 11.99-126.848 35.924-55.51 39.254-78.42 129.92-79.062 276.394 0.342 0.596 0.682 1.194 0.98 1.75 21.164 35.244 63.574 61.868 76.972 132.352 0 87.338 57.9 154.924 100.778 192.938 42.966 14.976 93.524 22.572 152.96 22.572 61.74 0 114.56-8.192 159.274-24.32 42.668-38.4 98.816-105.174 98.816-191.148 13.356-70.442 55.764-97.068 76.928-132.352 1.494-2.476 2.9-4.992 4.352-7.596-2.518-254.592-83.158-299.094-209.152-306.774zM922.794 519.764c-1.578 2.774-3.158 5.548-4.822 8.32-9.942 16.512-21.418 30.122-31.53 42.112-16.428 19.414-27.648 32.768-33.366 56.022-3.244 94.25-52.948 168.704-100.394 218.624 22.656 16.044 42.836 26.88 53.802 27.606 27.136-3.028 129.878-75.264 132.096-214.656 1.152-77.226-14.804-137.3-15.788-138.026z" />
<glyph unicode="&#xe905;" glyph-name="flags" d="M0 960l259.584-1024h81.748l-259.584 1024zM896 746.668h-170.668l-42.668 170.668h-512l128-512h128l42.668-170.668h554.668l-128 512zM280.022 832h336l85.332-341.334h-336l-85.332 341.334zM656.852 405.332l-121.856-81.236-20.308 81.236h142.164zM810.668 405.332l-64 256h82.688l85.332-341.332h-232.020l128 85.332z" />
<glyph unicode="&#xe906;" glyph-name="people" d="M512 960c-282.752 0-512-229.248-512-512s229.248-512 512-512 512 229.248 512 512-229.248 512-512 512zM512 21.332c-235.264 0-426.666 191.404-426.666 426.668s191.402 426.666 426.666 426.666 426.666-191.402 426.666-426.666-191.404-426.666-426.666-426.666zM341.334 661.334c-47.146 0-85.334-38.188-85.334-85.334s38.188-85.332 85.332-85.332 85.332 38.188 85.332 85.332-38.188 85.332-85.332 85.332zM682.668 661.334c-47.148 0-85.332-38.188-85.332-85.334s38.188-85.332 85.332-85.332 85.332 38.188 85.332 85.332-38.188 85.332-85.332 85.332zM649.9 320c-29.568-50.986-79.788-85.332-142.89-85.332-63.020 0-113.28 34.346-142.806 85.332h275.796zM768 405.332h-512c0-141.398 114.604-256 256-256s256 114.602 256 256z" />
<glyph unicode="&#xe907;" glyph-name="symbols" d="M0 960h469.334v-85.332h-469.334v85.332zM170.668 490.666h128v213.334h170.668v85.332h-469.334v-85.332h170.668zM661.332 234.668c58.924 0 106.668 47.616 106.668 106.368s-47.744 106.368-106.668 106.368-106.668-47.616-106.668-106.368 47.744-106.368 106.668-106.368zM661.332 362.068c11.776 0 21.332-9.472 21.332-21.034 0-11.606-9.558-21.034-21.332-21.034s-21.332 9.428-21.332 21.034c0 11.606 9.558 21.034 21.332 21.034zM917.332 148.736c-58.924 0-106.668-47.616-106.668-106.368s47.744-106.368 106.668-106.368 106.668 47.616 106.668 106.368-47.744 106.368-106.668 106.368zM917.332 21.332c-11.776 0-21.332 9.428-21.332 21.034 0 11.562 9.558 21.034 21.332 21.034s21.332-9.472 21.332-21.034c0-11.606-9.558-21.034-21.332-21.034zM938.668 405.332l-384-384 64.554-64 383.572 384.384zM725.332 490.666c94.25 0 170.668 47.744 170.668 106.666v277.332c0 0 42.028 6.87 63.914-40.49 21.846-47.188 21.418-130.176 21.418-130.176s42.668 47.744 42.668 133.76c0 123.092-128 122.24-128 122.24h-85.332v-270.806c-25.174 9.174-54.1 14.806-85.332 14.806-94.25 0-170.668-47.744-170.668-106.668s76.416-106.668 170.668-106.668zM439.338 86.1l-62.932 67.626c-32.98-26.41-53.504-42.452-61.524-48.172-13.098 12.288-42.198 43.35-87.252 93.14 38.486 35.668 63.104 62.548 73.772 80.726s16.044 37.164 16.044 57.004c0 25.26-11.648 50.26-34.902 75.052-23.296 24.788-56.704 37.164-100.224 37.164-43.008 0-76.374-12.5-100.010-37.504-23.722-25.044-35.5-50.39-35.5-76.116 0-34.688 17.878-74.582 53.59-119.68-36.14-26.198-61.61-51.54-76.544-76.116-14.932-24.534-22.316-50.602-22.316-78.208 0-36.564 13.142-66.56 39.424-89.9 26.284-23.424 60.716-35.116 103.252-35.116 50.048 0 104.276 16.172 162.688 48.512l44.46-48.512h120.276l-89.174 101.674 56.876 48.428zM151.936 358.698c8.492 8.106 18.902 12.202 31.146 12.202 13.228 0 23.85-3.626 31.872-10.836 8.064-7.296 12.074-16.682 12.074-28.116 0-22.1-17.878-47.446-53.632-76.116-22.868 27.776-34.348 52.524-34.348 74.326 0.044 10.836 4.308 20.394 12.884 28.544zM159.574 21.332c-18.218 0-33.194 4.948-45.098 14.89-11.904 9.9-17.836 20.778-17.836 32.682 0 25.344 21.716 54.956 65.152 88.876 41.3-48.384 73.26-83.028 95.916-104.020-39.296-21.632-71.936-32.428-98.132-32.428z" />
<glyph unicode="&#xe908;" glyph-name="recents" d="M554.668 789.332h-85.332l-0.044-298.666h-85.29v-85.332h85.334v-85.332h85.332v85.332h170.668v85.332h-170.668zM512 960c-282.752 0-512-229.248-512-512s229.248-512 512-512 512 229.248 512 512-229.248 512-512 512zM512 21.332c-235.264 0-426.666 191.404-426.666 426.668s191.402 426.666 426.666 426.666 426.666-191.402 426.666-426.666-191.404-426.666-426.666-426.666z" />
<glyph unicode="&#xe909;" glyph-name="mascot" d="M575.2 111.2l-37.6-21.6c-4 8-12 14.4-20.8 14.4h-24c-9.6 0-16.8-5.6-20.8-14.4l-128 73.6v-206.4l128 73.6c4-8 12-14.4 20.8-14.4h24c8.8 0 17.6 5.6 20.8 14.4l128-73.6v206.4l-90.4-52zM364.8 396c15.2-24 36-40.8 60.8-52.8s52-17.6 80-17.6c28 0 55.2 5.6 80 17.6s45.6 28.8 60.8 52.8c3.2-28-11.2-57.6-37.6-79.2s-64.8-34.4-103.2-34.4c-38.4 0-76.8 12.8-102.4 34.4-28 20.8-42.4 51.2-38.4 79.2zM904.8 680v7.2c0 5.6-0.8 7.2-4 8.8-5.6 3.2-11.2 5.6-16.8 7.2-4 1.6-8.8 3.2-14.4 4-60.8 141.6-200.8 240-364.8 240-163.2 0-304-99.2-364.8-240-4.8-1.6-9.6-2.4-14.4-4-5.6-2.4-11.2-4.8-16.8-7.2-3.2-1.6-4-2.4-4-8.8v-7.2c0-14.4-1.6-8.8 8-14.4 3.2-1.6 6.4-4.8 8.8-7.2-9.6-33.6-14.4-69.6-14.4-106.4 0-219.2 177.6-396.8 396.8-396.8s396.8 177.6 396.8 396.8c0 36.8-4.8 72.8-14.4 106.4 3.2 3.2 5.6 5.6 8.8 7.2 11.2 5.6 9.6 0 9.6 14.4zM504.8 901.6c133.6 0 249.6-74.4 308-184.8-47.2 4-99.2 3.2-129.6 0.8-48.8-4-90.4-15.2-123.2-32.8-31.2-16-78.4-16-109.6 0-33.6 17.6-74.4 28-123.2 32.8-31.2 2.4-84 3.2-130.4-0.8 58.4 109.6 174.4 184.8 308 184.8zM504.8 201.6c-192.8 0-349.6 156.8-349.6 349.6 0 2.4 0 5.6 0 8 12-46.4 40-76.8 81.6-92.8 44.8-16.8 94.4-16 138.4 1.6 24 9.6 45.6 24.8 62.4 49.6 29.6 43.2 20.8 70.4 36 108 13.6 32.8 50.4 32.8 64 0 15.2-37.6 6.4-64 36-108 16.8-24.8 38.4-40 62.4-49.6 44-17.6 93.6-18.4 138.4-1.6 41.6 15.2 68.8 45.6 81.6 92.8 0-2.4 0-5.6 0-8-1.6-192.8-157.6-349.6-351.2-349.6z" />
<glyph unicode="&#xe999;" glyph-name="unicode9" d="M640 554.667v86h-86v-86h86zM640 724.667c46 0 86-36 86-84v-256c0-48-40-86-86-86h-170v86h170v84h-86c-46 0-84 38-84 86v86c0 48 38 84 84 84h86zM896 212.667v598h-598v-598h598zM896 896.667c46 0 86-40 86-86v-598c0-46-40-84-86-84h-598c-46 0-84 38-84 84v598c0 46 38 86 84 86h598zM128 724.667v-682h682v-86h-682c-46 0-86 40-86 86v682h86z" />
</font>
</defs>
</svg>
